PathFileType	4	(X/Y/Z)	Patient4_TMGait_0pt4_03_left_32.trc.trc
DataRate	CameraRate	NumFrames	NumMarkers	Units	OrigDataRate	OrigDataStartFrame	OrigNumFrames
74.074074074074	74.074074074074	4	33	mm	74.074074074074	53	       141
Frame#	Time	Sacral			L.Shoulder			Chest			R.Shoulder			Neck			R.ASIS			L.ASIS			R.Thigh.Superior			R.Thigh.Lateral			R.Thigh.Inferior			R.Patella			L.Thigh.Superior			L.Thigh.Lateral			L.Thigh.Inferior			L.Patella			L.Shank.Superior			L.Shank.Lateral			L.Shank.Inferior			R.Shank.Superior			R.Shank.Lateral			R.Shank.Inferior			R.Heel			R.Midfoot.Superior			R.Midfoot.Lateral			R.Toe			L.Heel			L.Midfoot.Lateral			L.Midfoot.Superior			L.Toe			L.Elbow			L.Wrist			R.Elbow			R.Wrist			
		X1	Y1	Z1	X2	Y2	Z2	X3	Y3	Z3	X4	Y4	Z4	X5	Y5	Z5	X6	Y6	Z6	X7	Y7	Z7	X8	Y8	Z8	X9	Y9	Z9	X10	Y10	Z10	X11	Y11	Z11	X12	Y12	Z12	X13	Y13	Z13	X14	Y14	Z14	X15	Y15	Z15	X16	Y16	Z16	X17	Y17	Z17	X18	Y18	Z18	X19	Y19	Z19	X20	Y20	Z20	X21	Y21	Z21	X22	Y22	Z22	X23	Y23	Z23	X24	Y24	Z24	X25	Y25	Z25	X26	Y26	Z26	X27	Y27	Z27	X28	Y28	Z28	X29	Y29	Z29	X30	Y30	Z30	X31	Y31	Z31	X32	Y32	Z32	X33	Y33	Z33	

53	42.912000000000	850.694102335894	1008.417026260191	408.607311477882	1033.905755447159	1434.884932384974	217.616100186689	1133.891193182666	1370.600991654840	382.113721605798	1046.547096743404	1444.430788149586	554.320077058105	1010.436931749339	1499.744765696023	373.213034486405	1080.168522382760	950.821763526761	527.825462413402	1067.738057311280	965.372023980789	253.662574866483	1162.401948497847	778.144484140572	501.753683178714	1121.985517149027	659.175851634811	580.545018055633	1211.956702897789	617.347289809810	503.787656920860	1230.365451862043	506.231848752994	529.823879149866	1113.847330868377	751.252467212053	279.343444159545	1020.203022252187	636.688939629749	223.256995541894	1104.275847378005	558.321731015932	283.783805344753	1102.840825159660	490.009170316524	294.902916853691	1076.910720851485	418.110605920914	287.903335713158	986.786990337562	303.565055037564	239.095327179058	1037.230729205794	192.471755699606	310.652005868170	1154.462081897881	431.245156975471	540.209474577186	1034.035885302320	394.333769717384	604.854323584850	1017.903416943179	283.727326211319	559.644164841699	818.601378915282	229.554186789871	540.215121691911	982.623577931259	155.457936078548	571.866763295904	874.301316062820	160.914449533129	608.625620750016	1040.376813528796	36.701702196465	590.744169100019	910.221067110883	38.634535807806	358.933569008405	979.845038764483	35.337293743764	274.400841318108	1064.714703937929	95.430693610276	298.772268786197	1191.722732695900	43.224045840348	262.890411780518	1064.912248910684	1094.765967816544	73.954030263195	1243.619674121686	903.121463843363	45.539952698263	1007.453692344336	1097.108590390036	674.064145237202	1110.079117483363	856.652388243995	663.784632743095	
54	42.925500000000	849.833475817059	1009.059961365519	406.723678775389	1035.667129959262	1435.586925528145	216.972740293105	1133.933823114637	1370.840222921704	382.291967048481	1045.087477978117	1444.578737222845	553.763479097293	1010.769139423019	1500.199824118529	372.644890861577	1078.552406228055	951.825879096737	527.467422417585	1067.876525713957	965.503970669256	253.265977990329	1162.573378049736	781.322200578288	501.165962634216	1124.459080250889	662.156569391093	580.680867597014	1214.701921490088	621.433014592904	503.726085088574	1235.301024496038	510.900391327695	530.241211288063	1112.310528691090	750.575875220675	279.576714707631	1017.867897258469	636.726305709562	223.000912428210	1100.982876026349	557.731214371267	283.935522903637	1098.927450941374	489.514728213838	295.120003360285	1072.823010817616	417.820277833065	288.001997302544	982.432182617221	303.575951157166	239.029062351860	1032.166965205763	192.302133082026	310.725174364379	1160.940663879947	434.334625665395	540.744549266966	1041.341639410316	394.320338502735	605.106907563949	1028.234593269065	283.195232895454	560.131143748833	830.373834828492	223.501333357558	540.695658330766	996.331711000923	154.059598108289	572.197267588900	887.994969956771	156.357071272181	609.066437319579	1057.402640210275	37.053665847914	590.818583473483	904.741590990568	38.677410420613	358.872015221081	974.421391627001	35.351888932748	274.368208360675	1059.313149190524	95.390269061386	298.781584648597	1186.325878318320	43.106079636939	262.875922667287	1070.657651252909	1097.075268034284	71.245827663998	1257.824262161257	913.610691633257	42.807481261606	999.102633446623	1097.688222449534	672.092537433327	1088.174403387786	851.402066701542	664.392329932114	
55	42.939000000000	848.982984509326	1009.717657261753	404.910788028536	1037.603960528202	1436.238103273249	216.470579503528	1134.085524391770	1370.995430832952	382.611861616090	1043.748529667208	1444.694737791164	553.312586192425	1011.214765284070	1500.601509595376	372.205067182292	1076.870084122180	952.722114914351	527.283927454867	1068.055871163033	965.557031202446	253.051975843097	1162.420858370712	784.134180638675	500.940321904511	1126.210561552794	664.784448624881	581.015396197305	1216.663475158643	624.995546451654	503.946000473592	1239.244556751581	515.304809645417	530.914338056373	1110.641446645093	749.887213719452	280.160718100840	1015.515868204342	636.782187261222	222.806768511661	1097.568860663440	557.140177224968	284.224983780706	1094.859630215267	489.030309910390	295.407872203403	1068.610038998664	417.543746876501	288.143200822688	977.993033595257	303.582169658808	238.988077218612	1027.042405459490	192.137413684228	310.813915881232	1166.881812949824	436.995857284732	541.509563652747	1048.575572824820	393.108646383680	605.672839077817	1039.222424676447	281.516938020274	560.884750721836	843.374613815503	214.930166848549	541.425329827492	1011.546005655621	151.521865877529	572.866202394986	903.340911286080	149.980296674348	609.911950244963	1076.810442705041	37.098329452237	591.627117716076	899.262574987210	38.712665040053	358.817243643543	968.994324455574	35.359623534647	274.339702044999	1053.906648670050	95.349548588266	298.796609742320	1180.924363953285	43.000016853069	262.867369956885	1075.936493679415	1099.297778285805	68.804916181054	1271.215481558274	924.409655501061	40.574593356226	990.907870344373	1098.462662011297	670.321638237084	1066.981248189686	847.479187876542	664.855340151291	
56	42.952500000000	848.157353766654	1010.366169293687	403.178595455611	1039.700485296734	1436.797036391875	216.111918373989	1134.348481201019	1371.046335361030	383.073155123105	1042.545483407916	1444.772927352715	552.967011187975	1011.777185460649	1500.931683592158	371.880555654140	1075.148649926539	953.476648790971	527.285405909492	1068.275125906799	965.529511000363	253.016729335684	1161.938580792958	786.495812210769	501.073629799733	1127.168321755727	666.964675051061	581.531073987128	1217.777022641393	627.910960273382	504.444343573847	1242.090430083375	519.335231786804	531.802639123433	1108.852023437137	749.180667444012	281.029403246323	1013.137196461715	636.847552589627	222.655559561947	1094.032065631772	556.544538530660	284.614466992170	1090.643675869587	488.555946811770	295.736539936235	1064.279892786988	417.278227563399	288.304663936558	973.473427096982	303.578562278924	238.958810221667	1021.869432714111	191.977186274836	310.908225897192	1172.209612161234	439.187868134127	542.478260447559	1055.772775208430	390.742298611514	606.582922053958	1050.864507668819	278.813071556781	561.928440816838	857.763921474555	204.110047749889	542.504790379041	1028.254162097451	148.047322386108	573.910787013256	920.418633931210	142.059202218283	611.222416338657	1098.432612816347	37.001006998401	593.139516472569	893.788454893078	38.738417025329	358.769205504904	963.565032607698	35.359251430270	274.314401518646	1048.496009216986	95.308499174116	298.815240945743	1175.518707130371	42.905651839474	262.864051179587	1080.791260675924	1101.378456152625	66.620131682901	1283.754591196952	935.385537832210	38.833420409712	982.845290034803	1099.429647499353	668.760853378282	1046.691187254135	844.802321570608	665.189419007644	
